solid piling_test_incline
   facet normal -1.000000e+00 0.000000e+00 0.000000e+00
      outer loop
         vertex 0.000000e+00 0.000000e+00 2.000000e+00
         vertex 0.000000e+00 1.800000e+01 2.000000e+00
         vertex 0.000000e+00 0.000000e+00 0.000000e+00
      endloop
   endfacet
   facet normal -1.000000e+00 0.000000e+00 0.000000e+00
      outer loop
         vertex 0.000000e+00 0.000000e+00 0.000000e+00
         vertex 0.000000e+00 1.800000e+01 2.000000e+00
         vertex 0.000000e+00 1.800000e+01 0.000000e+00
      endloop
   endfacet
   facet normal -0.000000e+00 -1.000000e+00 -0.000000e+00
      outer loop
         vertex 1.335400e+02 0.000000e+00 2.000000e+00
         vertex 0.000000e+00 0.000000e+00 2.000000e+00
         vertex 1.335400e+02 0.000000e+00 0.000000e+00
      endloop
   endfacet
   facet normal 0.000000e+00 -1.000000e+00 0.000000e+00
      outer loop
         vertex 1.335400e+02 0.000000e+00 0.000000e+00
         vertex 0.000000e+00 0.000000e+00 2.000000e+00
         vertex 0.000000e+00 0.000000e+00 0.000000e+00
      endloop
   endfacet
   facet normal 1.000000e+00 0.000000e+00 0.000000e+00
      outer loop
         vertex 1.335400e+02 1.800000e+01 2.000000e+00
         vertex 1.335400e+02 0.000000e+00 2.000000e+00
         vertex 1.335400e+02 1.800000e+01 0.000000e+00
      endloop
   endfacet
   facet normal 1.000000e+00 0.000000e+00 0.000000e+00
      outer loop
         vertex 1.335400e+02 1.800000e+01 0.000000e+00
         vertex 1.335400e+02 0.000000e+00 2.000000e+00
         vertex 1.335400e+02 0.000000e+00 0.000000e+00
      endloop
   endfacet
   facet normal -0.000000e+00 1.000000e+00 0.000000e+00
      outer loop
         vertex 0.000000e+00 1.800000e+01 2.000000e+00
         vertex 1.335400e+02 1.800000e+01 2.000000e+00
         vertex 0.000000e+00 1.800000e+01 0.000000e+00
      endloop
   endfacet
   facet normal 0.000000e+00 1.000000e+00 0.000000e+00
      outer loop
         vertex 0.000000e+00 1.800000e+01 0.000000e+00
         vertex 1.335400e+02 1.800000e+01 2.000000e+00
         vertex 1.335400e+02 1.800000e+01 0.000000e+00
      endloop
   endfacet
   facet normal 0.000000e+00 -0.000000e+00 1.000000e+00
      outer loop
         vertex 1.335400e+02 0.000000e+00 2.000000e+00
         vertex 1.335400e+02 1.800000e+01 2.000000e+00
         vertex 0.000000e+00 0.000000e+00 2.000000e+00
      endloop
   endfacet
   facet normal 0.000000e+00 0.000000e+00 1.000000e+00
      outer loop
         vertex 0.000000e+00 0.000000e+00 2.000000e+00
         vertex 1.335400e+02 1.800000e+01 2.000000e+00
         vertex 0.000000e+00 1.800000e+01 2.000000e+00
      endloop
   endfacet
   facet normal -0.000000e+00 -0.000000e+00 -1.000000e+00
      outer loop
         vertex 1.335400e+02 1.800000e+01 0.000000e+00
         vertex 1.335400e+02 0.000000e+00 0.000000e+00
         vertex 0.000000e+00 1.800000e+01 0.000000e+00
      endloop
   endfacet
   facet normal 0.000000e+00 0.000000e+00 -1.000000e+00
      outer loop
         vertex 0.000000e+00 1.800000e+01 0.000000e+00
         vertex 1.335400e+02 0.000000e+00 0.000000e+00
         vertex 0.000000e+00 0.000000e+00 0.000000e+00
      endloop
   endfacet
endsolid piling_test_incline