solid LIGGGHTS_STL_EXPORT
  facet normal -1 0 -0
    outer loop
      vertex 0 0 0.1672
      vertex 0 0.0018 0.1672
      vertex 0 0 0.167
    endloop
  endfacet
  facet normal -1 0 0
    outer loop
      vertex 0 0 0.167
      vertex 0 0.0018 0.1672
      vertex 0 0.0018 0.167
    endloop
  endfacet
  facet normal -0 -1 -0
    outer loop
      vertex 0.013354 0 0.1672
      vertex 0 0 0.1672
      vertex 0.013354 0 0.167
    endloop
  endfacet
  facet normal -0 -1 -0
    outer loop
      vertex 0.013354 0 0.167
      vertex 0 0 0.1672
      vertex 0 0 0.167
    endloop
  endfacet
  facet normal 1 0 0
    outer loop
      vertex 0.013354 0.0018 0.1672
      vertex 0.013354 0 0.1672
      vertex 0.013354 0.0018 0.167
    endloop
  endfacet
  facet normal 1 0 0
    outer loop
      vertex 0.013354 0.0018 0.167
      vertex 0.013354 0 0.1672
      vertex 0.013354 0 0.167
    endloop
  endfacet
  facet normal -0 1 0
    outer loop
      vertex 0 0.0018 0.1672
      vertex 0.013354 0.0018 0.1672
      vertex 0 0.0018 0.167
    endloop
  endfacet
  facet normal -0 1 0
    outer loop
      vertex 0 0.0018 0.167
      vertex 0.013354 0.0018 0.1672
      vertex 0.013354 0.0018 0.167
    endloop
  endfacet
  facet normal 0 -0 1
    outer loop
      vertex 0.013354 0 0.1672
      vertex 0.013354 0.0018 0.1672
      vertex 0 0 0.1672
    endloop
  endfacet
  facet normal 0 -0 1
    outer loop
      vertex 0 0 0.1672
      vertex 0.013354 0.0018 0.1672
      vertex 0 0.0018 0.1672
    endloop
  endfacet
  facet normal -0 -0 -1
    outer loop
      vertex 0.013354 0.0018 0.167
      vertex 0.013354 0 0.167
      vertex 0 0.0018 0.167
    endloop
  endfacet
  facet normal -0 -0 -1
    outer loop
      vertex 0 0.0018 0.167
      vertex 0.013354 0 0.167
      vertex 0 0 0.167
    endloop
  endfacet
endsolid LIGGGHTS_STL_EXPORT
